<!DOCTYPE svg PUBLIC "-//W3C//DTD SVG 1.1//EN" "http://www.w3.org/Graphics/SVG/1.1/DTD/svg11.dtd">
<!-- Uploaded to: SVG Repo, www.svgrepo.com, Transformed by: SVG Repo Mixer Tools -->
<svg height="256px" width="256px" version="1.1" id="Capa_1" xmlns="http://www.w3.org/2000/svg" xmlns:xlink="http://www.w3.org/1999/xlink" viewBox="0 0 56.00 56.00" xml:space="preserve" fill="#000000" stroke="#000000" stroke-width="0.00056">
<g id="SVGRepo_bgCarrier" stroke-width="0"/>
<g id="SVGRepo_tracerCarrier" stroke-linecap="round" stroke-linejoin="round" stroke="#CCCCCC" stroke-width="0.33599999999999997"/>
<g id="SVGRepo_iconCarrier"> <g> <path style="fill:#0284C7;" d="M0,16.207c0-8.822,7.178-16,16-16h24c8.822,0,16,7.178,16,16v14c0,8.485-6.644,15.429-15,15.949 v-3.949c0-0.553-0.448-1-1-1s-1,0.447-1,1v4v1v8.586l-1.359-1.359c-5.306-5.305-12.359-8.227-19.86-8.227H16 c-8.822,0-16-7.178-16-16L0,16.207z"/> <circle style="fill:#FFFFFF;" cx="15" cy="23.207" r="3"/> <circle style="fill:#FFFFFF;" cx="28" cy="23.207" r="3"/> <circle style="fill:#FFFFFF;" cx="41" cy="23.207" r="3"/> </g> </g>
</svg>