<svg id="svg" xmlns="http://www.w3.org/2000/svg" xmlns:xlink="http://www.w3.org/1999/xlink" width="400" height="420.0913242009132" viewBox="0, 0, 400,420.0913242009132"><g id="svgg"><path id="path0" d="M282.901 44.748 C 269.402 52.084,274.411 74.886,289.520 74.886 C 299.031 74.886,300.918 88.114,291.560 89.184 C 283.106 90.150,277.926 88.023,269.248 80.024 L 261.086 72.501 251.548 74.557 C 183.011 89.333,171.420 92.252,159.457 97.746 C 118.491 116.559,104.895 155.477,113.947 228.020 C 116.938 251.996,112.768 250.355,169.277 249.792 C 221.861 249.268,221.532 249.336,230.819 236.898 C 247.134 215.046,216.854 168.558,192.415 177.936 C 188.802 179.323,180.822 174.436,180.822 170.838 C 180.822 158.433,212.227 161.086,228.305 174.848 C 233.294 179.118,235.844 180.338,236.323 178.683 C 236.710 177.348,238.013 172.557,239.219 168.037 C 245.786 143.425,292.789 100.994,307.945 105.996 C 319.988 109.971,345.715 105.824,356.761 98.127 L 361.923 94.530 348.667 82.425 C 326.709 62.374,322.862 59.662,321.027 62.941 C 317.109 69.942,306.849 64.251,306.849 55.077 C 306.849 45.976,292.237 39.674,282.901 44.748 M271.689 144.719 C 262.011 153.149,262.457 153.425,285.780 153.425 C 305.055 153.425,306.881 153.724,308.734 157.187 C 312.287 163.825,320.424 161.286,321.093 153.331 C 322.366 138.187,286.388 131.915,271.689 144.719 M77.117 245.607 C 36.354 258.336,23.825 313.199,54.869 343.029 C 68.435 356.065,75.632 358.400,106.849 359.894 C 138.716 361.420,147.476 363.393,156.133 370.994 C 166.344 379.959,175.894 372.962,167.687 362.528 C 159.299 351.864,144.116 347.408,111.416 346.013 C 81.011 344.716,74.013 342.441,63.110 330.315 C 37.747 302.105,56.908 257.732,94.521 257.574 C 105.094 257.530,105.031 257.603,101.916 248.988 C 99.394 242.014,91.897 240.992,77.117 245.607 M237.330 253.104 C 236.017 254.686,231.191 257.935,226.604 260.325 L 218.265 264.670 238.749 264.755 C 257.515 264.833,259.401 265.156,261.246 268.603 C 264.628 274.923,272.915 272.731,273.629 265.327 C 274.864 252.540,245.894 242.785,237.330 253.104 " stroke="none" fill="#000000" fill-rule="evenodd"></path></g></svg>