<?xml version="1.0" encoding="UTF-8" standalone="no"?>
<!-- Created with Inkscape (http://www.inkscape.org/) -->

<svg
   width="963.61865"
   height="1082.0685"
   viewBox="0 0 963.61865 1082.0685"
   version="1.1"
   id="SVGRoot"
   sodipodi:docname="packrat_icon.svg"
   inkscape:version="1.2.2 (b0a84865, 2022-12-01)"
   xmlns:inkscape="http://www.inkscape.org/namespaces/inkscape"
   xmlns:sodipodi="http://sodipodi.sourceforge.net/DTD/sodipodi-0.dtd"
   xmlns="http://www.w3.org/2000/svg"
   xmlns:svg="http://www.w3.org/2000/svg">
  <sodipodi:namedview
     id="namedview879"
     pagecolor="#ffffff"
     bordercolor="#000000"
     borderopacity="0.25"
     inkscape:showpageshadow="2"
     inkscape:pageopacity="0.0"
     inkscape:pagecheckerboard="0"
     inkscape:deskcolor="#d1d1d1"
     inkscape:document-units="px"
     showgrid="true"
     inkscape:zoom="0.50268274"
     inkscape:cx="435.66246"
     inkscape:cy="800.70384"
     inkscape:window-width="1390"
     inkscape:window-height="1205"
     inkscape:window-x="2240"
     inkscape:window-y="25"
     inkscape:window-maximized="0"
     inkscape:current-layer="layer1">
    <inkscape:grid
       type="xygrid"
       id="grid942" />
  </sodipodi:namedview>
  <defs
     id="defs874" />
  <g
     inkscape:label="Layer 1"
     inkscape:groupmode="layer"
     id="layer1"
     transform="translate(-65.190681,-5.9657521)">
    <g
       id="g40"
       transform="matrix(6.8895236,0,0,6.8895236,-1037.0832,-1562.3654)">
      <path
         class="st0"
         d="m 298.42,353.51 c -0.6,-0.89 -1.13,-1.83 -1.69,-2.75 -0.08,-0.12 -0.15,-0.25 -0.23,-0.38 0.4,-0.26 0.74,-0.48 1.07,-0.69 0.71,-0.46 0.9,-1.26 0.48,-1.93 -0.41,-0.68 -1.2,-0.83 -1.9,-0.38 -0.35,0.21 -0.71,0.44 -1.04,0.66 -3.82,-6.26 -13.9,-22.69 -17.78,-29.07 -0.48,0.4 -1.07,0.64 -1.79,0.72 -0.14,0.02 -0.26,0.02 -0.38,0.02 -1.21,0 -2.18,-0.64 -2.98,-1.95 -0.71,-1.18 -1.6,-2.64 -2.7,-3.73 -0.63,-0.63 -1.41,-0.97 -2.25,-1.18 0.29,0.48 0.58,0.95 0.89,1.44 l 1.99,3.28 c 0.51,0.83 1.01,1.6 1.44,2.39 0.78,1.46 1.56,1.63 2.84,0.68 0.15,-0.12 0.34,-0.21 0.52,-0.34 3.84,6.31 14.05,22.95 17.87,29.23 -0.37,0.25 -0.72,0.46 -1.07,0.69 -0.67,0.44 -0.87,1.24 -0.48,1.92 0.41,0.66 1.2,0.84 1.87,0.43 0.37,-0.23 0.74,-0.48 1.12,-0.72 0.66,1.07 1.32,2.09 1.92,3.15 0.4,0.74 0.94,1.1 1.76,0.98 0.2,-0.12 0.41,-0.25 0.61,-0.38 0.47,-0.73 0.37,-1.39 -0.09,-2.09 z M 277.86,318.4 c 0.11,-0.08 0.23,-0.14 0.34,-0.21 0.83,-0.54 1,-1.27 0.49,-2.1 -0.09,-0.17 -0.2,-0.32 -0.31,-0.49 0.08,0.51 0.09,0.97 0.03,1.38 -0.08,0.55 -0.26,1.03 -0.55,1.42 z"
         id="path20"
         style="fill:#ffffff" />
      <g
         id="g32">
        <path
           class="st0"
           d="m 170.98,286.08 c -1.18,1.67 -1.95,3.53 -2.3,5.49 -0.78,-0.15 -1.53,-0.48 -2.22,-0.97 l -1,-0.71 c -2.73,-1.93 -3.39,-5.71 -1.46,-8.44 l 8.59,-12.18 c 1.93,-2.73 5.71,-3.39 8.44,-1.46 l 1.01,0.71 c 0.31,0.21 0.6,0.46 0.81,0.72 z"
           id="path22"
           style="fill:#ffffff" />
        <path
           class="st0"
           d="m 221.43,270.03 c -1.61,1.86 -3.25,3.71 -4.88,5.54 -0.75,-0.28 -1.53,-0.52 -2.33,-0.75 1.17,-1.83 1.89,-3.87 2.09,-5.97 1.56,0.18 3.32,0.55 5.12,1.18 z"
           id="path24"
           style="fill:#ffffff" />
        <path
           class="st0"
           d="m 196.26,304.83 c -0.86,-0.45 -1.61,-0.91 -2.29,-1.35 -1.26,1.53 -2.81,2.78 -4.56,3.64 1.73,1.44 3.41,2.7 5,3.68 0.5,-2.02 1.12,-4.01 1.85,-5.97 z"
           id="path26"
           style="fill:#ffffff" />
        <path
           class="st0"
           d="m 212.79,256.65 c -0.2,0.29 -0.43,0.54 -0.67,0.72 -0.49,-0.49 -1.03,-0.94 -1.6,-1.33 l -0.9,-0.63 c -0.25,-0.18 -0.51,-0.35 -0.77,-0.49 0.08,-0.26 0.22,-0.52 0.4,-0.77 0.89,-1.29 2.42,-1.76 3.41,-1.07 0.97,0.69 1.03,2.3 0.13,3.57 z"
           id="path28"
           style="fill:#ffffff" />
        <path
           class="st0"
           d="m 193.86,302.21 19.28,-27.33 c 4.14,-5.87 2.74,-13.99 -3.13,-18.13 l -0.89,-0.63 c -5.87,-4.14 -13.99,-2.74 -18.13,3.13 l -19.28,27.33 c -4.14,5.87 -2.74,13.99 3.13,18.13 l 0.89,0.63 c 5.86,4.14 13.98,2.74 18.13,-3.13 z"
           id="path30"
           style="fill:#ffffff" />
      </g>
      <path
         class="st0"
         d="m 299.86,249.47 c 0,1.24 -0.99,2.24 -2.23,2.24 -0.18,0 -0.36,-0.02 -0.52,-0.07 -0.41,-0.1 -0.78,-0.31 -1.07,-0.6 -0.38,-0.4 -0.62,-0.95 -0.62,-1.57 0,-1.24 1,-2.27 2.2,-2.27 1.19,0.01 2.23,1.06 2.24,2.27 z"
         id="path34"
         style="fill:#ffffff" />
      <path
         class="st0"
         d="m 296.58,252.41 c 0,0 -1.16,2.05 -1.16,2.07 -0.03,0.11 -0.08,0.24 -0.14,0.35 -4.23,10.04 -11.61,16.39 -22.17,19.06 -0.26,0.06 -0.54,0.15 -0.83,0.23 -0.27,0.08 -0.55,0.13 -0.82,0.18 -0.24,0.03 -0.46,0.06 -0.69,0.06 h -0.08 c -0.56,-0.02 -1.07,0.07 -1.53,0.22 -0.14,0.04 -0.28,0.11 -0.43,0.18 -0.35,0.17 -0.68,0.39 -0.98,0.64 -0.46,0.39 -0.87,0.87 -1.26,1.39 -4.34,5.89 -4.99,12.2 -1.61,18.62 1.41,2.7 3.45,5.12 5.57,7.35 3.18,3.34 5.75,7.18 6.99,11.67 0.45,1.62 0.49,3.82 -1.06,4.51 -1.08,0.47 -2.35,-0.13 -3.14,-1 -0.79,-0.87 -1.28,-1.97 -1.99,-2.9 -1.97,-2.55 -5.37,-3.42 -8.53,-3.98 -3.17,-0.56 -6.55,-1.08 -8.96,-3.2 -1.5,-1.32 -2.81,-2.79 -4.31,-0.8 -0.92,1.21 -1.13,3.07 -1.3,4.53 -0.38,3.05 -0.1,6.08 -0.17,9.13 -0.14,6.5 -0.81,12.95 -2.67,19.16 4.75,2.7 7.61,10.58 8.63,20.7 0.38,0.97 0.93,1.46 1.5,1.84 1.44,0.87 3.01,1.5 5.54,-0.27 2.71,-2.55 5.6,-5.42 7.08,-5.8 3.33,-0.87 5.71,-0.18 7.32,1.78 l -15.5,14.26 -9.41,-8.34 -6.26,-5.7 c 0,0 -5.11,-0.26 -9.11,-2.28 -2.03,1.5 -4.35,2.67 -7,3.4 -6.16,1.71 -12.73,1.37 -19.04,0.29 -2.61,3.28 -7.27,6.54 -15.38,6.07 l -2.24,-1 c -0.67,0.57 -0.96,1.18 -1.15,1.76 -0.46,1.62 -0.66,3.29 1.71,5.27 3.18,1.95 6.71,3.98 7.47,5.31 1.71,2.98 1.66,5.46 0.2,7.53 l -17.83,-11.2 5.24,-10.6 2.4,-5.42 c 0,0 0.68,-4.89 5.06,-8.22 -0.68,-2.21 -1.08,-4.54 -1.53,-6.69 -0.01,-0.03 -0.01,-0.06 -0.02,-0.08 -1.2,-5.72 -1.44,-11.62 -0.88,-17.42 1.15,-11.73 5.54,-23.04 11.92,-32.9 1.02,-1.58 2.1,-3.12 3.23,-4.62 6.46,-8.62 14.36,-16.06 20.67,-24.82 1.35,-1.87 0.65,-3.58 -1.64,-3.81 -5.37,-0.54 -9.6,-2.92 -12.47,-7.52 -4.64,-7.46 -2.04,-17.38 5.65,-21.74 2.44,-1.38 5.08,-2.02 7.69,-2.02 2.8,0 5.54,0.75 7.93,2.15 0.6,0.35 1.18,0.75 1.72,1.18 1.65,1.3 3.07,2.95 4.11,4.92 0.89,1.69 1.34,2.3 2.32,2.3 0.54,0 1.21,-0.17 2.21,-0.45 2.61,-0.73 5.23,-1.29 7.85,-1.29 2.04,0 4.07,0.34 6.08,1.19 0.24,0.11 0.5,0.22 0.75,0.34 l 4.4,2.56 c -0.7,0.66 -1.13,1.6 -1.13,2.64 0,2.03 1.66,3.69 3.69,3.69 1.71,0 3.15,-1.18 3.55,-2.76 l 1.29,0.75 c 6,2.86 12.44,4.31 19.24,4.79 0.32,0.02 0.65,0.02 0.97,0.02 0.84,0 1.65,-0.03 2.45,-0.09 0.02,0.78 0.32,1.51 0.85,2.07 0.31,0.35 0.69,0.6 1.14,0.76 z"
         id="path36"
         style="fill:#ffffff" />
      <path
         class="st0"
         d="m 161.67,356.17 c -0.62,0 -1.22,-0.35 -1.51,-0.95 -0.4,-0.84 -0.06,-1.84 0.78,-2.25 4.72,-2.29 7.97,-5.32 9.65,-9 0.93,-2.04 1.17,-3.81 1.4,-5.52 0.29,-2.12 0.58,-4.32 2.2,-6.55 2.68,-3.69 7.74,-5.66 15.03,-5.85 0.94,-0.02 1.7,0.71 1.72,1.64 0.02,0.93 -0.71,1.7 -1.64,1.72 -6.19,0.16 -10.36,1.66 -12.4,4.46 -1.12,1.54 -1.33,3.08 -1.59,5.02 -0.25,1.86 -0.54,3.98 -1.68,6.47 -2.02,4.41 -5.8,7.99 -11.24,10.63 -0.22,0.12 -0.47,0.18 -0.72,0.18 z"
         id="path38"
         style="fill:#ffffff" />
    </g>
  </g>
</svg>
