<svg width="28" height="32" viewBox="0 0 28 32" fill="none" xmlns="http://www.w3.org/2000/svg"><path fill-rule="evenodd" clip-rule="evenodd" d="M13.868 0c.14 0 .255.114.255.255V16a.255.255 0 11-.51 0V.255c0-.141.114-.255.255-.255z" fill="#000"/><path fill-rule="evenodd" clip-rule="evenodd" d="M13.74 15.78a.255.255 0 01.255 0l13.718 7.873a.255.255 0 010 .441l-13.612 7.872a.255.255 0 01-.255 0L.128 24.095a.255.255 0 010-.442L13.74 15.78zm.128.515L.765 23.873l13.208 7.578 13.103-7.576-13.208-7.58z" fill="#000"/><path d="M13.868 23.874a7.873 7.873 0 100-15.746 7.873 7.873 0 000 15.746z" fill="#fff"/><path fill-rule="evenodd" clip-rule="evenodd" d="M13.868 8.383a7.618 7.618 0 100 15.236 7.618 7.618 0 000-15.236zM5.74 16a8.128 8.128 0 1116.256 0A8.128 8.128 0 015.74 16z" fill="#000"/><path fill-rule="evenodd" clip-rule="evenodd" d="M.127 7.907a.255.255 0 01.255 0l13.613 7.873c.08.046.128.13.128.22v15.745a.255.255 0 01-.383.22L.127 24.096A.255.255 0 010 23.873V8.128c0-.091.049-.175.127-.22zm.382.662v15.158l13.104 7.577V16.148L.51 8.569z" fill="#000"/><path fill-rule="evenodd" clip-rule="evenodd" d="M27.713 7.907c.08.046.128.13.128.22v15.747c0 .09-.049.175-.127.22L14.1 31.966a.255.255 0 01-.383-.22V16c0-.091.049-.175.128-.22l13.613-7.874a.255.255 0 01.255 0zm-13.485 8.24v15.157l13.103-7.577V8.569l-13.103 7.579z" fill="#000"/><path fill-rule="evenodd" clip-rule="evenodd" d="M13.74.034a.255.255 0 01.255 0l13.718 7.873a.255.255 0 010 .441l-13.612 7.873a.255.255 0 01-.255 0L.128 8.35a.255.255 0 010-.442L13.74.034zm.128.515L.765 8.127l13.208 7.58 13.103-7.578L13.868.549z" fill="#000"/><path d="M20.64 11.99a11.566 11.566 0 01-11.4 9.637 11.8 11.8 0 01-.919-.039 7.873 7.873 0 0012.32-9.598z" fill="#000"/></svg>