<svg width="32" height="32" viewBox="0 0 32 32" fill="none" xmlns="http://www.w3.org/2000/svg"><path d="M27.468 10.391a4.144 4.144 0 100-8.289 4.144 4.144 0 000 8.29z" fill="#fff"/><path fill-rule="evenodd" clip-rule="evenodd" d="M27.468 2.36a3.886 3.886 0 100 7.773 3.886 3.886 0 000-7.772zm-4.402 3.887a4.403 4.403 0 118.805 0 4.403 4.403 0 01-8.805 0z" fill="#000"/><path d="M31.034 4.132a6.088 6.088 0 01-6.002 5.075c-.164 0-.324 0-.484-.021a4.144 4.144 0 006.486-5.054z" fill="#000"/><path d="M.258 23.871L.3 8.13l13.55 7.87v15.743L.258 23.872z" fill="#fff"/><path fill-rule="evenodd" clip-rule="evenodd" d="M.171 7.905a.258.258 0 01.258 0l13.551 7.87c.08.047.129.132.129.224v15.743a.258.258 0 01-.388.223L.129 24.095A.258.258 0 010 23.87L.041 8.128c0-.092.05-.177.13-.223zm.386.672l-.04 15.146 13.075 7.57V16.149L.557 8.577z" fill="#000"/><path d="M.3 8.129L13.87.259l6.774 3.935L13.85 8.13l6.795 3.936-6.795 3.934L.3 8.13z" fill="#fff"/><path fill-rule="evenodd" clip-rule="evenodd" d="M13.742.035a.258.258 0 01.259 0l6.773 3.936a.258.258 0 010 .447l-6.408 3.71 6.408 3.713a.258.258 0 010 .447l-6.794 3.935a.258.258 0 01-.26 0L.17 8.351a.258.258 0 010-.447L13.742.035zM.813 8.129L13.851 15.7l6.278-3.636-6.408-3.713a.258.258 0 010-.447l6.409-3.711L13.87.557.815 8.129z" fill="#000"/><path d="M20.645 12.065v7.87L27.44 16l.041 7.872-13.632 7.87V16l6.795-3.934z" fill="#000"/><path fill-rule="evenodd" clip-rule="evenodd" d="M20.774 11.841c.08.046.129.132.129.224v7.422l6.408-3.711a.258.258 0 01.388.222l.041 7.872a.258.258 0 01-.129.225l-13.632 7.87a.258.258 0 01-.387-.223V15.999c0-.092.05-.177.129-.223l6.794-3.935a.258.258 0 01.259 0zm-6.665 4.307v15.146l13.114-7.571-.038-7.277-6.41 3.713a.258.258 0 01-.389-.224v-7.422l-6.277 3.635z" fill="#000"/><path d="M20.645 4.194v7.87L13.85 8.13l6.795-3.935z" fill="#000"/><path fill-rule="evenodd" clip-rule="evenodd" d="M20.774 3.97c.08.047.129.132.129.224v7.87a.258.258 0 01-.388.224l-6.794-3.936a.258.258 0 010-.447l6.794-3.934a.258.258 0 01.259 0zM14.366 8.13l6.02 3.488V4.642l-6.02 3.487z" fill="#000"/><path d="M20.645 12.065l6.796 3.934-6.796 3.936v-7.87z" fill="#fff"/><path fill-rule="evenodd" clip-rule="evenodd" d="M20.516 11.841a.258.258 0 01.258 0l6.796 3.935a.258.258 0 010 .447l-6.796 3.936a.258.258 0 01-.388-.224v-7.87c0-.092.05-.178.13-.224zm.387.672v6.974L26.925 16l-6.022-3.486zM.035 16.09a.258.258 0 01.353-.094l13.59 7.87a.258.258 0 01-.259.448L.13 16.444a.258.258 0 01-.094-.354z" fill="#000"/><path fill-rule="evenodd" clip-rule="evenodd" d="M20.858 4.065a.258.258 0 01-.094.353L7.323 12.214v15.6a.258.258 0 01-.517 0v-15.75c0-.091.05-.176.13-.223l13.569-7.87a.258.258 0 01.353.094z" fill="#000"/><path fill-rule="evenodd" clip-rule="evenodd" d="M6.845 4.074a.258.258 0 01.353-.095l13.576 7.862a.258.258 0 11-.259.447L6.94 4.426a.258.258 0 01-.094-.352z" fill="#000"/></svg>